<?xml version="1.0" encoding="UTF-8"?>
<svg version="1.1" xmlns="http://www.w3.org/2000/svg" width="1024" height="1024">
<path d="M0 0 C337.92 0 675.84 0 1024 0 C1024 337.92 1024 675.84 1024 1024 C686.08 1024 348.16 1024 0 1024 C0 686.08 0 348.16 0 0 Z " fill="#FDFDFD" transform="translate(0,0)"/>
<path d="M0 0 C10.375 5.1875 10.375 5.1875 12.2277832 6.1237793 C15.34351478 7.69419727 18.46545112 9.22568162 21.64453125 10.6640625 C30.2534439 14.66953233 36.38729609 19.29282889 43 26 C38.45200375 20.40246616 33.47668152 15.6856053 28 11 C28.66 10.67 29.32 10.34 30 10 C32.31 11.65 34.62 13.3 37 15 C37.33 13.35 37.66 11.7 38 10 C49.17463346 17.923831 57.36735494 26.02606934 59.81640625 40.17578125 C60.34252772 43.77241656 60.7093179 47.37649723 61 51 C61.4075911 38.83738259 61.4075911 38.83738259 59 27 C61 28 61 28 61.8515625 29.79296875 C65.4060469 40.79750883 64.90055482 51.20779132 61 62 C60.65056968 63.32920553 60.3119143 64.66149398 60 66 C63.6492869 59.75719474 66.65346233 54.13664963 68 47 C68.33 47 68.66 47 69 47 C68.95297052 57.84029435 64.21858738 66.14447844 57 74 C65.65710648 67.25540374 65.65710648 67.25540374 71 58 C71.87797881 60.44380089 72.07579638 61.73402362 71.35546875 64.26171875 C68.35203661 70.49961626 64.7073727 74.56179352 59.40234375 78.9921875 C57.13320835 80.88866814 55.05869581 82.87949577 53 85 C54.258125 85.20625 55.51625 85.4125 56.8125 85.625 C57.87404297 85.79902344 57.87404297 85.79902344 58.95703125 85.9765625 C61.31755824 86.19577848 61.31755824 86.19577848 64 84 C68.86583159 83.2043821 73.56207705 83.1185362 77.6875 86.0625 C80 89 80 89 79.875 92.8125 C79.441875 94.3903125 79.441875 94.3903125 79 96 C80.65 96.33 82.3 96.66 84 97 C84 97.66 84 98.32 84 99 C84.94875 99.020625 85.8975 99.04125 86.875 99.0625 C92.42898469 99.82347541 96.80373005 103.48648695 101 107 C103 110 103 110 103.1875 112.8125 C104.10406663 116.4082614 104.52001945 116.59598867 107.375 118.625 C112.43761795 122.49213322 112.98037402 127.99877283 114 134 C114.5775 133.278125 115.155 132.55625 115.75 131.8125 C118 129 118 129 120.25 126.625 C122.32357511 124.04044689 122.32357511 124.04044689 122 120.5 C122 116.11503542 123.06583992 115.1571959 126 112 C138.24103372 102.79854729 155.11830517 96.91845231 170 94 C170.77480713 93.83016602 171.54961426 93.66033203 172.34790039 93.48535156 C189.46603401 90.35262123 206.53631605 93.31449736 221 103 C224.55088175 105.80054662 227.80089545 108.80624513 231 112 C231.68835938 112.67675781 232.37671875 113.35351562 233.0859375 114.05078125 C245.6941732 127.28195349 252.75445057 145.42152008 260.49145508 161.69262695 C268.22423206 177.93616358 268.22423206 177.93616358 278 193 C278.48025635 193.65669678 278.9605127 194.31339355 279.45532227 194.98999023 C288.00965181 206.42923435 297.44977962 217.24891185 307.1875 227.6875 C311.51200526 232.3248536 315.63645606 237.06282056 319.6015625 242.015625 C321.38640324 244.23650176 323.19088617 246.42858182 325.0234375 248.609375 C333.10772188 258.28669964 340.23049818 268.36750755 347 279 C347.39106934 279.60038086 347.78213867 280.20076172 348.18505859 280.81933594 C360.23006295 299.34602841 369.46838613 319.92676887 376 341 C376.37253906 342.14210938 376.74507812 343.28421875 377.12890625 344.4609375 C380.71059519 356.06280051 382.7681797 368.08161944 385 380 C385.13712402 380.71704102 385.27424805 381.43408203 385.41552734 382.17285156 C389.3130707 402.83148051 389.3130707 402.83148051 385.9140625 408.95703125 C384.5625 410.3125 384.5625 410.3125 382 412 C381.67 412.33 381.34 412.66 381 413 C377.09467317 412.62206515 373.7184246 412.23947487 370 411 C357.95160815 409.19274122 347.19830047 418.16440293 337.5234375 424.40625 C324.68006465 432.51785391 310.26483142 435.64531622 295.17578125 436.4296875 C293.89896484 436.50316406 292.62214844 436.57664062 291.30664062 436.65234375 C288.66370095 436.80192578 286.02080899 436.94038585 283.37695312 437.07421875 C271.57680389 437.77357466 261.35067877 439.96740826 250.6875 445.0625 C248.94845995 445.86576059 247.2088534 446.66779556 245.46875 447.46875 C244.57414062 447.88382813 243.67953125 448.29890625 242.7578125 448.7265625 C228.38042463 455.36541299 213.92914561 461.28926496 198.90625 466.30859375 C194.83940991 467.67681508 190.93490095 469.28514328 187 471 C184.49736087 471.95214133 181.97336485 472.82836871 179.4375 473.6875 C178.80392578 473.91244141 178.17035156 474.13738281 177.51757812 474.36914062 C173.54841807 475.71399506 170.14930661 476.81071934 166 476 C163.82470409 473.79032441 162.23227116 471.83831888 160.5 469.3125 C159.98864502 468.59698975 159.47729004 467.88147949 158.95043945 467.14428711 C157.27530932 464.77929346 155.63548283 462.39255388 154 460 C153.44747559 459.20271484 152.89495117 458.40542969 152.32568359 457.58398438 C140.11022287 439.91235516 129.05095568 421.46388489 118.57421875 402.71484375 C117.21481361 400.3704602 115.75245996 398.20746552 114.1875 396 C108.53290265 387.04051974 107.16935116 373.12610997 109.47167969 362.90625 C110.43361859 359.2454038 111.53831657 355.64121282 112.7109375 352.04296875 C115.80622028 342.4914161 118.55366365 331.78900825 114.87890625 322.01953125 C113.99239942 320.35952837 113.07274653 318.71658499 112.11328125 317.09765625 C110.64591873 314.33283634 110.59580826 312.07185725 111 309 C113.24431696 309.4987371 115.25046219 310.10545777 117.375 311 C120.24111871 312.09185475 122.9692039 312.57709822 126 313 C124.60228275 309.64980144 123.10739994 308.09390826 120.125 306.0625 C116.82048019 303.65921287 114.09826611 301.58453794 112 298 C111.75 294.1875 111.75 294.1875 112 291 C112.99 291 113.98 291 115 291 C116.08175651 292.15154725 117.16164974 293.30487878 118.234375 294.46484375 C120.52486865 296.45635703 123.009125 297.69996715 125.6875 299.125 C132.47329604 302.94880862 137.21699661 307.90860257 142 314 C142.7528125 314.87527344 143.505625 315.75054688 144.28125 316.65234375 C146.76550157 321.49098829 146.3469914 325.66311163 146 331 C145.9489209 331.90862793 145.8978418 332.81725586 145.84521484 333.75341797 C145.66655183 336.48651904 145.43851757 339.2101301 145.1875 341.9375 C145.10056885 342.895354 145.0136377 343.85320801 144.92407227 344.84008789 C144.32977007 350.87576158 143.42200548 356.63711117 141.68359375 362.46484375 C139.5521189 370.36957047 137.41627519 382.81635149 141.24609375 390.5 C143.03511205 392.54931426 144.92120801 394.24625549 147 396 C148.61195387 397.63820719 150.21603103 399.2841988 151.8125 400.9375 C154.63604199 403.84556276 154.63604199 403.84556276 158 406 C157.70867187 405.27941406 157.41734375 404.55882812 157.1171875 403.81640625 C149.94682065 385.03365283 141.48755717 361.3188516 149.98828125 341.80859375 C154.6967243 332.53844426 160.46150083 323.78659119 166 315 C169.8457141 308.87648734 173.60489563 302.7388319 177.125 296.421875 C177.69081787 295.40802734 178.25663574 294.39417969 178.83959961 293.34960938 C179.95702367 291.33929113 181.06764329 289.3251697 182.17016602 287.30664062 C186.62019718 279.28876422 191.43968538 271.89803484 198.5 265.9375 C201.42142613 263.04454781 201.94876988 262.44643392 202.4375 258.1875 C200.92043895 252.03361525 196.94429776 245.58663903 192.19921875 241.41796875 C189.10035857 240.82902019 187.48578624 242.17710192 184.96484375 243.87695312 C184.35769531 244.30943359 183.75054688 244.74191406 183.125 245.1875 C170.24735805 254.06338009 170.24735805 254.06338009 164 253 C160.41213225 250.30909919 159.16744704 248.70566965 158.125 244.3125 C157.75375 243.219375 157.3825 242.12625 157 241 C153.48599332 239.45913678 153.48599332 239.45913678 150 239 C149.67 237.35 149.34 235.7 149 234 C147.35 233.67 145.7 233.34 144 233 C143.67 231.35 143.34 229.7 143 228 C141.95199219 228.14308594 141.95199219 228.14308594 140.8828125 228.2890625 C139.97273438 228.39992188 139.06265625 228.51078125 138.125 228.625 C137.22007812 228.74101562 136.31515625 228.85703125 135.3828125 228.9765625 C134.59648438 228.98429688 133.81015625 228.99203125 133 229 C131 227 131 227 130.89990234 224.28540039 C130.96129395 223.15094482 131.02268555 222.01648926 131.0859375 220.84765625 C131.12847656 219.59533203 131.17101562 218.34300781 131.21484375 217.05273438 C131.32024818 214.42662145 131.44981943 211.80134877 131.60546875 209.17773438 C131.84174336 200.59746556 130.48553337 195.73024742 125.12744141 188.97436523 C122.92458978 186.93001579 121.84516164 186.58701148 119 186 C117.07055997 181.67831506 116.34757266 177.07611777 115.5 172.4375 C115.37326904 171.7465625 115.24653809 171.055625 115.1159668 170.34375 C113.95191588 163.91529907 112.94093117 157.46475065 112 151 C111.67 152.65 111.34 154.3 111 156 C110.34 156 109.68 156 109 156 C109 154.68 109 153.36 109 152 C108.34 152 107.68 152 107 152 C107.04060547 152.65411865 107.08121094 153.3082373 107.12304688 153.98217773 C107.38768991 161.62509569 105.96837945 167.864595 103.5 175.0625 C103.18546875 176.07376953 102.8709375 177.08503906 102.546875 178.12695312 C100.68682649 183.68205956 98.76390062 187.49018866 94.7421875 191.77734375 C89.36998567 198.04888175 90.16811149 204.65204672 90.625 212.5 C90.73703181 215.19762481 90.82589044 217.8951507 90.9140625 220.59375 C90.9754541 221.77646484 91.0368457 222.95917969 91.10009766 224.17773438 C91 227 91 227 89 229 C84.44755354 229.34358086 81.11418186 228.99475484 77 227 C77.0309375 228.7015625 77.0309375 228.7015625 77.0625 230.4375 C77 234 77 234 76 235 C74.33382885 235.04063832 72.66611905 235.042721 71 235 C71 236.98 71 238.96 71 241 C68.29120665 242.35439668 65.99066732 242.06501451 63 242 C62.9175 243.051875 62.835 244.10375 62.75 245.1875 C61.91859128 249.41382766 61.28449464 251.22081223 58 254 C49.92669409 255.76144856 43.74278269 251.03185597 37 247 C36.14792969 246.40832031 35.29585937 245.81664062 34.41796875 245.20703125 C32.05995961 243.79572644 32.05995961 243.79572644 29.3828125 244.0546875 C24.07785233 246.15927826 21.44491417 252.81111401 19.0625 257.75 C17.90190896 261.30004318 17.86130434 262.51506166 19 266 C20.91063004 268.24489998 20.91063004 268.24489998 23.375 270.375 C47.8528481 293.94496785 66.95528503 332.57376192 67.66778564 366.53405762 C67.7073129 369.3560452 67.72919887 372.17781864 67.75 375 C67.77823586 376.95054637 67.80817353 378.90106887 67.83984375 380.8515625 C67.91279109 385.56766414 67.96291244 390.28348568 68 395 C68.98169476 393.87720538 69.96027298 392.75168527 70.9375 391.625 C71.48277344 390.99851562 72.02804687 390.37203125 72.58984375 389.7265625 C75.46964634 386.20059922 75.17134782 383.48398709 75 379 C74.62554984 376.81637129 74.18525713 374.64323699 73.6875 372.484375 C70.81018012 359.36577598 68.38581213 346.61944444 68.25 333.125 C68.22292969 332.03413086 68.19585937 330.94326172 68.16796875 329.81933594 C68.25401006 322.17360949 70.31013308 317.9211255 75 312 C75.62003906 310.99710938 76.24007812 309.99421875 76.87890625 308.9609375 C81.27817714 302.20382073 85.7149131 298.95130711 93.046875 295.6328125 C96.27926498 293.84559159 97.90206721 292.00432122 100 289 C100.99 289.33 101.98 289.66 103 290 C103.55375724 293.79719252 103.74012002 295.88268382 101.58203125 299.140625 C99.16603347 301.92237085 96.83695501 304.41263693 93.8125 306.53515625 C91.66449593 307.96496684 91.66449593 307.96496684 91.25 311.1875 C91.1675 312.115625 91.085 313.04375 91 314 C91.75925781 313.71125 92.51851562 313.4225 93.30078125 313.125 C94.29464844 312.75375 95.28851563 312.3825 96.3125 312 C97.29863281 311.62875 98.28476562 311.2575 99.30078125 310.875 C102 310 102 310 105 310 C105.54777638 314.27265577 104.86368885 316.39014487 102.5 319.8125 C98.30210373 326.98140021 98.53472853 336.32933759 100.57861328 344.23925781 C102.08962526 348.95712381 104.03616131 353.45671515 106 358 C110.8057991 370.44042977 107.85098072 382.19463228 103 394 C101.72337778 396.77957082 100.42985222 399.53009353 99.015625 402.2421875 C98.06893437 404.81281667 97.81827592 406.61039796 97.625 409.3046875 C97.14989576 414.36653595 95.32628421 417.92924303 92.75 422.25 C92.30962402 423.01304443 91.86924805 423.77608887 91.41552734 424.56225586 C89.96467037 427.05457954 88.48617109 429.52858769 87 432 C86.48791992 432.85803223 85.97583984 433.71606445 85.44824219 434.60009766 C78.51433466 446.17017251 71.24698604 457.48311352 63.22583008 468.33422852 C62.11325974 469.84609217 61.04235625 471.38839856 59.9765625 472.93359375 C58 475 58 475 55.65234375 475.62890625 C39.89116792 475.24338109 24.49765938 470.59499657 9.625 465.6875 C8.84574158 465.43322235 8.06648315 465.1789447 7.26361084 464.91696167 C-11.20032375 458.86838328 -29.10665858 451.54475529 -47 444 C-48.46884386 443.38216038 -49.93775613 442.7644834 -51.40673828 442.14697266 C-52.48127258 441.6950782 -52.48127258 441.6950782 -53.57751465 441.23405457 C-54.99906502 440.63629842 -56.42069493 440.03873139 -57.84240723 439.44136047 C-61.1084428 438.068376 -64.37231105 436.69088564 -67.63037109 435.29907227 C-95.93805239 423.2797215 -95.93805239 423.2797215 -125.75 426.4375 C-126.83796875 426.88996094 -127.9259375 427.34242188 -129.046875 427.80859375 C-131.7257283 428.88934806 -134.15766377 429.54206805 -137 430 C-142.02111589 414.93665233 -136.45876305 395.8398507 -133.81163025 380.66984558 C-131.93683222 369.916923 -130.83021271 359.60813432 -130.875 348.6875 C-130.87113281 347.72521484 -130.86726563 346.76292969 -130.86328125 345.77148438 C-130.86457031 344.84013672 -130.86585938 343.90878906 -130.8671875 342.94921875 C-130.86887939 341.70144653 -130.86887939 341.70144653 -130.87060547 340.4284668 C-131.00699753 337.86867086 -131.45390055 335.50153024 -132 333 C-134.27832111 313.13005198 -123.55624238 293.01258584 -113 277 C-113.94101562 276.71511719 -114.88203125 276.43023438 -115.8515625 276.13671875 C-119.70000402 274.74726902 -120.96154918 273.52808796 -123 270 C-123.62867257 264.97061945 -122.97531812 262.09106241 -120 258 C-119.34 258.33 -118.68 258.66 -118 259 C-118.66 259.99 -119.32 260.98 -120 262 C-120.34386442 265.23232558 -120.26498755 267.37065456 -119 270.375 C-116.4344723 272.45949125 -114.32224199 272.55443412 -111.0703125 272.3984375 C-107.75595226 271.76057949 -105.55921582 270.12227653 -103 268 C-102.67 267.34 -102.34 266.68 -102 266 C-103.051875 266.103125 -104.10375 266.20625 -105.1875 266.3125 C-109 266 -109 266 -111.875 263.5625 C-112.57625 262.716875 -113.2775 261.87125 -114 261 C-114.33 260.67 -114.66 260.34 -115 260 C-114.6875 256.5 -114.6875 256.5 -114 253 C-113.34 252.67 -112.68 252.34 -112 252 C-111.8453125 253.6396875 -111.8453125 253.6396875 -111.6875 255.3125 C-111.23640217 258.83108458 -111.23640217 258.83108458 -109.875 261 C-106.85200363 262.61226473 -104.2411345 261.67268829 -101 261 C-100.67 259.35 -100.34 257.7 -100 256 C-100.81404297 255.34644531 -100.81404297 255.34644531 -101.64453125 254.6796875 C-106.38553283 250.73312402 -110.29192665 247.45458802 -111.30859375 241.05859375 C-111.63046648 235.91838373 -110.29241901 233.06710583 -107 229 C-106.01 228.01 -106.01 228.01 -105 227 C-104.68970116 224.94570672 -104.44989463 222.88045754 -104.25 220.8125 C-103.37156549 214.60169351 -101.94808983 210.91380977 -97 207 C-93.19046599 204.58988665 -90.50530258 203.6024733 -86 204 C-85.96132813 203.12988281 -85.96132813 203.12988281 -85.921875 202.2421875 C-85.42197351 195.35718063 -83.5996961 191.40947443 -78.4375 186.625 C-76 185 -76 185 -73 185 C-73 184.34 -73 183.68 -73 183 C-79.80564971 183.79765901 -79.80564971 183.79765901 -85.5625 187.1875 C-87.24959495 190.48833795 -87.7115001 193.32162627 -88 197 C-88.33 197 -88.66 197 -89 197 C-89.57685009 187.19354839 -89.57685009 187.19354839 -86 183 C-82.2425718 179.79513477 -78.94081746 179.61293229 -74.1953125 179.76171875 C-71.30064777 180.07590834 -68.75009382 181.06379785 -66 182 C-60.0478329 182.68303557 -56.24874008 181.81259776 -51.1171875 178.6875 C-46.46412176 174.97878339 -43.67567886 170.28041616 -42 164.625 C-41.75731866 161.76309679 -41.75731866 161.76309679 -44 159 C-44.375 156.0625 -44.375 156.0625 -44 153 C-42 150.625 -42 150.625 -40 149 C-40.495 148.13375 -40.99 147.2675 -41.5 146.375 C-43.10876683 142.75527463 -43.56824235 140.89651898 -43 137 C-40.48147841 132.05982304 -38.02091647 130.18300716 -33 128 C-30.20922581 125.20922581 -30.29586538 122.1879863 -29.75 118.4375 C-28.13580556 108.82298113 -24.43177679 102.35989944 -16.73828125 96.21875 C-10.72115385 92 -10.72115385 92 -7 92 C-6.67 91.01 -6.34 90.02 -6 89 C-4.14453125 87.9375 -4.14453125 87.9375 -1.8125 87 C-0.60013672 86.49533203 -0.60013672 86.49533203 0.63671875 85.98046875 C1.41660156 85.65691406 2.19648438 85.33335937 3 85 C6.74757187 83.37586312 6.74757187 83.37586312 10 81 C8.35 80.01 6.7 79.02 5 78 C5.66 77.67 6.32 77.34 7 77 C7.598125 77.309375 8.19625 77.61875 8.8125 77.9375 C11.39660235 79.19263543 13.1604447 79.23023421 16 79 C16.33 78.67 16.66 78.34 17 78 C16.21496094 77.67128906 15.42992187 77.34257812 14.62109375 77.00390625 C5.74904099 72.98698911 0.25218585 68.58150406 -3.4375 59.4375 C-3.623125 58.633125 -3.80875 57.82875 -4 57 C-1.49280542 59.32649587 0.32183601 61.82681521 2.1875 64.6875 C2.71730469 65.49574219 3.24710938 66.30398438 3.79296875 67.13671875 C4.19128906 67.75160156 4.58960938 68.36648438 5 69 C4.74734375 68.50113281 4.4946875 68.00226563 4.234375 67.48828125 C3.22440322 65.45235712 2.241153 63.40792559 1.265625 61.35546875 C-3.83491913 49.4807981 -3.83491913 49.4807981 -13 41 C-12.505 40.01 -12.505 40.01 -12 39 C-5.53124431 43.42146333 -2.40807778 48.51447248 0.98046875 55.35400391 C3.85048259 61.03022199 7.45205198 65.53672123 12 70 C11.4225 69.29875 10.845 68.5975 10.25 67.875 C6.17699956 62.67061055 3.42994529 58.01992512 1.4375 51.6875 C1.11954468 50.69955444 1.11954468 50.69955444 0.79516602 49.69165039 C-0.10828974 46.87978675 -0.98192535 44.0592447 -1.84375 41.234375 C-3.31165176 36.54347154 -5.05887643 32.95530411 -8 29 C-3.34825918 30.84295664 -2.29411716 33.63630194 -0.23046875 37.9921875 C1.53637495 42.31113878 2.84773193 46.7244557 4.10546875 51.21484375 C4.91331623 54.16647591 4.91331623 54.16647591 7 57 C6.69191406 56.1853125 6.38382813 55.370625 6.06640625 54.53125 C4.85071943 50.50567898 4.35880514 46.66908908 3.9375 42.5 C3.78131684 41.0311038 3.62378882 39.56234991 3.46484375 38.09375 C3.35245361 37.05347656 3.35245361 37.05347656 3.23779297 35.9921875 C2.91780371 33.31137398 2.47510579 30.65722884 2 28 C4.96527758 30.4453385 5.55582214 32.44602347 6.1875 36.1875 C6.34605469 37.08855469 6.50460937 37.98960937 6.66796875 38.91796875 C6.77753906 39.60503906 6.88710938 40.29210937 7 41 C7.33 41 7.66 41 8 41 C7.98839844 40.24074219 7.97679687 39.48148437 7.96484375 38.69921875 C7.95582031 37.70535156 7.94679688 36.71148437 7.9375 35.6875 C7.92589844 34.70136719 7.91429687 33.71523438 7.90234375 32.69921875 C8 30 8 30 9 27 C7.57610348 20.05487209 3.75680406 16.17979856 -1.6875 11.875 C-5.94663102 9.46417112 -10.28428501 8.23018652 -15 7 C-15 6.67 -15 6.34 -15 6 C-6.53111793 6.19448372 -0.24428876 8.06350317 6.046875 13.8984375 C9.52531501 17.64997817 11.85378347 20.90570433 13 26 C13.66 25.34 14.32 24.68 15 24 C15.99 27.96 15.99 27.96 17 32 C17.35482238 22.02554863 15.86524546 15.48412503 9 8 C6.65058938 6.00702525 4.25238117 4.15477778 1.7578125 2.34765625 C1.17773438 1.90292969 0.59765625 1.45820313 0 1 C0 0.67 0 0.34 0 0 Z " fill="#010101" transform="translate(406,264)"/>
<path d="M0 0 C3.45925163 1.2491742 6.14693203 2.67527795 9 5 C9.33 3.35 9.66 1.7 10 0 C11.13021508 1.13021508 12.25825524 2.26264485 13.37890625 3.40234375 C14.52323682 4.53012978 15.70163843 5.62383869 16.90234375 6.69140625 C23.65999901 12.90429851 28.66514245 20.77734784 30 30 C30.03824623 32.33301986 30.04574284 34.66711508 30 37 C28.86573208 34.81248331 27.89290482 32.7001335 27.0625 30.375 C26.11541176 27.69200398 26.11541176 27.69200398 23 26 C21.8125 23.375 21.8125 23.375 21 21 C20.34 21.66 19.68 22.32 19 23 C17.31638437 20.93374445 16.08375322 19.25211868 15.23828125 16.70703125 C13.65307301 13.24157601 11.28339824 10.95754748 8.5625 8.375 C8.07201172 7.89804687 7.58152344 7.42109375 7.07617188 6.9296875 C5.72259626 5.61447233 4.36156596 4.30694147 3 3 C1.99682374 2.00318638 0.99492825 1.00504616 0 0 Z " fill="#464544" transform="translate(434,274)"/>
<path d="M0 0 C7.52501039 2.35156575 14.89028708 8.27385494 19 15 C21.18002355 20.52962177 22.53044155 25.15265779 21 31 C20.67 31 20.34 31 20 31 C19.67 29.02 19.34 27.04 19 25 C18.34 25.99 17.68 26.98 17 28 C16.77957031 27.05640625 16.77957031 27.05640625 16.5546875 26.09375 C14.39869653 17.86629021 10.46086033 11.59941229 4 6 C1.86690808 4.76487921 1.86690808 4.76487921 0 4 C0 2.68 0 1.36 0 0 Z " fill="#9F9C99" transform="translate(402,266)"/>
<path d="M0 0 C3.0625 -0.5 3.0625 -0.5 7 0 C9.11656865 1.93031061 10.78946333 3.96963588 12.51953125 6.25 C13.00808594 6.8275 13.49664062 7.405 14 8 C14.66 8 15.32 8 16 8 C16.19491452 9.45736087 16.38069358 10.91594593 16.5625 12.375 C16.66691406 13.18710937 16.77132813 13.99921875 16.87890625 14.8359375 C17 17 17 17 16 19 C15.76970044 21.37123246 15.58880058 23.74741943 15.4375 26.125 C15.35371094 27.40632813 15.26992188 28.68765625 15.18359375 30.0078125 C15.12300781 30.99523437 15.06242187 31.98265625 15 33 C14.67 33 14.34 33 14 33 C13.94054199 32.44127197 13.88108398 31.88254395 13.81982422 31.30688477 C12.0130084 14.55565465 12.0130084 14.55565465 2.125 1.4375 C1.42375 0.963125 0.7225 0.48875 0 0 Z " fill="#918C8A" transform="translate(399,279)"/>
<path d="M0 0 C0 0.66 0 1.32 0 2 C-0.59167969 2.17015625 -1.18335938 2.3403125 -1.79296875 2.515625 C-7.38205402 4.22973272 -12.08460926 5.7173731 -15.1875 11.03515625 C-16.18649686 13.00193132 -17.12112009 14.97710323 -18 17 C-18.99 16.67 -19.98 16.34 -21 16 C-20.56577288 10.57216103 -19.52657136 7.19376054 -16 3 C-10.91222617 -0.63412417 -5.9980207 -0.32005249 0 0 Z " fill="#E1E0E1" transform="translate(343,451)"/>
<path d="M0 0 C8.08953128 4.16033037 11.26516045 11.05801667 15.25390625 18.87890625 C16.93171155 21.87793631 18.82933259 24.34848854 21 27 C21.67349161 28.66392045 22.3409159 30.33032028 23 32 C24.52007842 33.77277259 24.52007842 33.77277259 26 35 C22.47404526 35.51852276 21.10770857 35.06875015 18.0625 33.125 C14.09953038 29.54387901 11.20052899 24.83773882 9 20 C9.33 19.34 9.66 18.68 10 18 C13.96 23.94 13.96 23.94 18 30 C17.34 28.68 16.68 27.36 16 26 C15.41968042 24.78620305 14.84157499 23.57134517 14.265625 22.35546875 C9.16508087 10.4807981 9.16508087 10.4807981 0 2 C0 1.34 0 0.68 0 0 Z " fill="#606060" transform="translate(393,303)"/>
<path d="M0 0 C0 0.66 0 1.32 0 2 C-0.9075 2.391875 -1.815 2.78375 -2.75 3.1875 C-7.37430064 5.76643689 -9.38901085 8.38087876 -11.25 13.3125 C-11.4975 14.199375 -11.745 15.08625 -12 16 C-13.32 15.34 -14.64 14.68 -16 14 C-15.41786038 9.39306746 -14.87795514 5.23103934 -11.375 1.9375 C-7.09235801 -0.52105373 -4.85006956 -0.41810944 0 0 Z " fill="#EBEAEB" transform="translate(333,447)"/>
<path d="M0 0 C3.2471928 1.61202683 6.4772141 3.25306427 9.6875 4.9375 C10.66074219 5.44152344 11.63398438 5.94554687 12.63671875 6.46484375 C15 8 15 8 16 11 C18.47679934 12.62322947 20.92480874 14.11425023 23.5 15.5625 C30.87548046 19.75096092 30.87548046 19.75096092 32 22 C17.53645901 17.96964569 17.53645901 17.96964569 14.2265625 13.7265625 C11.67843126 10.60621934 8.88342056 8.25373796 5.75 5.75 C3.81041564 4.18931119 1.89826067 2.61173076 0 1 C0 0.67 0 0.34 0 0 Z " fill="#444443" transform="translate(406,264)"/>
<path d="M0 0 C0.33 0.66 0.66 1.32 1 2 C-3.77481701 9.95802835 -10.43807055 13.74340898 -19 17 C-17.54014515 13.43669838 -15.67896037 11.67815284 -12.625 9.375 C-11.46871094 8.48941406 -11.46871094 8.48941406 -10.2890625 7.5859375 C-8.24095893 6.16694424 -6.2224777 5.10655008 -4 4 C-2.62913085 2.70529025 -1.28659163 1.37849103 0 0 Z " fill="#CECDCC" transform="translate(478,332)"/>
<path d="M0 0 C8.6305003 6.9707887 14.64979284 13.77427494 17.75 24.625 C18.07998024 27.75981224 18.06174628 30.85093955 18 34 C16.30647508 30.85914541 15.23406384 27.7193993 14.1875 24.3125 C11.37840184 15.82324012 8.03577733 9.43525333 1.35546875 3.41015625 C0 2 0 2 0 0 Z " fill="#D0CECD" transform="translate(446,277)"/>
<path d="M0 0 C0.66 0.66 1.32 1.32 2 2 C1.34 2 0.68 2 0 2 C-0.33 2.99 -0.66 3.98 -1 5 C-1 4.34 -1 3.68 -1 3 C-7.80564971 3.79765901 -7.80564971 3.79765901 -13.5625 7.1875 C-15.24959495 10.48833795 -15.7115001 13.32162627 -16 17 C-16.33 17 -16.66 17 -17 17 C-17.57685009 7.19354839 -17.57685009 7.19354839 -14 3 C-9.86128707 -0.53007867 -5.2365196 -0.79216505 0 0 Z " fill="#1A1A1B" transform="translate(334,444)"/>
<path d="M0 0 C0.79921875 0.01804687 1.5984375 0.03609375 2.421875 0.0546875 C3.02515625 0.07789063 3.6284375 0.10109375 4.25 0.125 C1.91367991 1.30577516 -0.4229946 2.42716084 -2.8125 3.5 C-7.07666389 5.85889917 -8.74009131 8.79596591 -10.75 13.125 C-11.41 13.125 -12.07 13.125 -12.75 13.125 C-13.09717213 9.39289965 -13.0422789 7.58429542 -11 4.375 C-7.51237422 0.88737422 -4.91526474 -0.14456661 0 0 Z " fill="#E1DFE0" transform="translate(316.75,475.875)"/>
<path d="M0 0 C0.33 0 0.66 0 1 0 C0.95297052 10.84029435 -3.78141262 19.14447844 -11 27 C-11.66 26.67 -12.32 26.34 -13 26 C-12.66269693 22.96427234 -11.98389137 21.98433883 -9.75 19.8125 C-4.20362295 14.14006892 -1.53814944 7.69074719 0 0 Z " fill="#383837" transform="translate(474,311)"/>
<path d="M0 0 C2 1 2 1 2.8515625 2.79296875 C5.70499895 11.62709272 6.11010099 20.92996913 4 30 C3.67 29.01 3.34 28.02 3 27 C2.34 27 1.68 27 1 27 C0.67 27.66 0.34 28.32 0 29 C0.875 25.125 0.875 25.125 2 24 C2.12834819 21.46586949 2.1897612 18.9723104 2.1875 16.4375 C2.18814453 15.71111328 2.18878906 14.98472656 2.18945312 14.23632812 C2.13974488 9.19771927 1.6021709 4.80651269 0 0 Z " fill="#3D3D3D" transform="translate(465,291)"/>
<path d="M0 0 C0.66 0.33 1.32 0.66 2 1 C1.01 2.485 1.01 2.485 0 4 C-0.34871643 7.27793445 -0.32475128 9.33245569 1.125 12.3125 C3.62320828 14.56088745 5.70948807 14.70751005 9 15 C8.34 16.32 7.68 17.64 7 19 C3.48281029 18.12070257 1.31296266 17.28825508 -1.375 14.8125 C-3.45136958 11.21878343 -3.51203184 9.09625474 -3 5 C-1.5 2.0625 -1.5 2.0625 0 0 Z " fill="#414443" transform="translate(286,522)"/>
<path d="M0 0 C4.6539973 1.84385063 5.70957905 4.63923964 7.76953125 9 C9.51566199 13.25723305 10.84001139 17.59850787 12.10546875 22.01953125 C12.92793709 24.75989521 13.89371953 27.36344609 15 30 C14.34 30.66 13.68 31.32 13 32 C12.33918096 30.13730297 11.67858354 28.27452705 11.01904297 26.41137695 C10.4629572 24.84058975 9.90598544 23.27011593 9.34814453 21.69995117 C7.95198228 17.75622475 6.60889857 13.81060711 5.375 9.8125 C4.15024632 6.04289886 2.36098136 3.17511287 0 0 Z " fill="#505150" transform="translate(398,293)"/>
<path d="M0 0 C1.36523593 3.10280894 0.89965502 4.30631624 -0.1875 7.625 C-2.09894514 11.18424267 -2.50297614 11.560049 -6 13 C-6.721875 13.825 -7.44375 14.65 -8.1875 15.5 C-11.86990097 18.7732453 -15.22425987 19.30288761 -20 20 C-16.48137826 16.10438308 -16.48137826 16.10438308 -14.14453125 15.59765625 C-9.12265943 14.1981182 -4.38225931 9.30664523 -1.75 4.9140625 C-0.83618197 2.84858694 -0.83618197 2.84858694 0 0 Z " fill="#777576" transform="translate(477,322)"/>
<path d="M0 0 C3.31981497 2.92116224 4.70471362 5.16630223 5.8125 9.4375 C6.06644531 10.36433594 6.32039063 11.29117187 6.58203125 12.24609375 C7.02247438 15.14807885 6.75163547 17.18264527 6 20 C5.67 20 5.34 20 5 20 C4.67 18.02 4.34 16.04 4 14 C3.01 15.485 3.01 15.485 2 17 C0.82223763 13.31949259 0.93021138 9.83837399 1 6 C1.15811388 2.94729537 1.15811388 2.94729537 0 0 Z " fill="#554F4D" transform="translate(417,277)"/>
<path d="M0 0 C2.34481705 2.34481705 2.67684754 3.9123299 3.625 7.0625 C5.78487632 13.31130249 9.33596564 17.41520895 14 22 C11 22 11 22 8.80859375 19.953125 C8.02613281 19.06109375 7.24367188 18.1690625 6.4375 17.25 C5.65246094 16.36828125 4.86742187 15.4865625 4.05859375 14.578125 C-0.0212457 9.46864865 -0.21291168 6.38735047 0 0 Z " fill="#BEBBB9" transform="translate(406,312)"/>
<path d="M0 0 C1.69584719 1.54167927 2.90266031 2.79860754 3.90625 4.875 C5.07703367 7.14966541 6.43305714 8.83736894 8.125 10.75 C8.66382813 11.36359375 9.20265625 11.9771875 9.7578125 12.609375 C10.16773438 13.06828125 10.57765625 13.5271875 11 14 C7.86248779 14 6.60242414 13.64820195 4 12 C3.67 11.01 3.34 10.02 3 9 C2.34 9 1.68 9 1 9 C0 2.25 0 2.25 0 0 Z " fill="#6B6967" transform="translate(444,274)"/>
<path d="M0 0 C5.77378925 0.4811491 9.95859836 2.18467181 15 5 C14.34 6.32 13.68 7.64 13 9 C11.01716521 7.88147781 9.03882377 6.75498675 7.0625 5.625 C5.40927734 4.68527344 5.40927734 4.68527344 3.72265625 3.7265625 C1 2 1 2 0 0 Z " fill="#191919" transform="translate(420,273)"/>
<path d="M0 0 C3.0625 -0.5 3.0625 -0.5 7 0 C9.71294856 2.38823271 11.86481726 5.09251712 14 8 C13.34 9.32 12.68 10.64 12 12 C11.690625 11.29875 11.38125 10.5975 11.0625 9.875 C8.49811051 6.30039647 5.56891557 4.5274948 1.86328125 2.234375 C1.24839844 1.82703125 0.63351562 1.4196875 0 1 C0 0.67 0 0.34 0 0 Z " fill="#AEACAA" transform="translate(399,279)"/>
<path d="M0 0 C5.25380499 3.00217428 9.24682861 6.5207376 12 12 C12.74161687 15.67900136 12.98621872 19.25149248 13 23 C12.67 23 12.34 23 12 23 C11.79246094 22.14277344 11.58492188 21.28554688 11.37109375 20.40234375 C9.30678769 12.74109071 7.210638 7.97156983 1 3 C0.34 2.34 -0.32 1.68 -1 1 C-0.67 0.67 -0.34 0.34 0 0 Z " fill="#D3D0CD" transform="translate(411,269)"/>
<path d="M0 0 C1.90318884 2.85478326 2.4619099 4.41941308 3.125 7.6875 C3.29257812 8.49574219 3.46015625 9.30398438 3.6328125 10.13671875 C3.75398437 10.75160156 3.87515625 11.36648438 4 12 C1.1394109 10.64062915 -0.85927699 9.35479531 -3 7 C-1.125 2.25 -1.125 2.25 0 0 Z " fill="#DBDBDA" transform="translate(560,658)"/>
<path d="M0 0 C0.75 1.75 0.75 1.75 1 4 C0.443125 4.53625 -0.11375 5.0725 -0.6875 5.625 C-4.11944007 9.14969521 -5.35825957 13.42408519 -7 18 C-7.33 18 -7.66 18 -8 18 C-7.68205303 10.84619321 -6.26009427 6.49295815 -1.25 1.125 C-0.8375 0.75375 -0.425 0.3825 0 0 Z " fill="#272927" transform="translate(328,450)"/>
<path d="M0 0 C0.598125 0.309375 1.19625 0.61875 1.8125 0.9375 C4.08956772 2.10209704 4.08956772 2.10209704 7 3 C7.94921875 5.06640625 7.94921875 5.06640625 8.6875 7.5625 C8.93886719 8.38878906 9.19023437 9.21507812 9.44921875 10.06640625 C9.63097656 10.70449219 9.81273437 11.34257812 10 12 C6.15625 10.328125 6.15625 10.328125 4.75 7.375 C4.5025 6.59125 4.255 5.8075 4 5 C3.34 5.66 2.68 6.32 2 7 C1.34 4.69 0.68 2.38 0 0 Z " fill="#353634" transform="translate(451,290)"/>
<path d="M0 0 C0.66 0.33 1.32 0.66 2 1 C1.525625 1.845625 1.05125 2.69125 0.5625 3.5625 C-1.05721513 7.12587329 -1.61256143 10.12561425 -2 14 C-4.47354885 11.52645115 -4.79408211 9.39725545 -5.1796875 5.9765625 C-5 4 -5 4 -2.5625 1.5 C-1.2940625 0.7575 -1.2940625 0.7575 0 0 Z " fill="#DBD9D7" transform="translate(497,587)"/>
<path d="M0 0 C4.74130209 1.35262372 8.32288579 3.33354354 12.375 6.125 C13.43460937 6.84945313 14.49421875 7.57390625 15.5859375 8.3203125 C16.38257813 8.87460937 17.17921875 9.42890625 18 10 C17.01 10.495 17.01 10.495 16 11 C15.01 10.34 14.02 9.68 13 9 C11.80375 8.690625 10.6075 8.38125 9.375 8.0625 C7.704375 7.5365625 7.704375 7.5365625 6 7 C5.67 6.01 5.34 5.02 5 4 C3.35857037 2.9590934 1.69287785 1.95495674 0 1 C0 0.67 0 0.34 0 0 Z " fill="#8A8582" transform="translate(420,275)"/>
<path d="M0 0 C4.10958767 1.45044271 7.43258745 3.51110752 11 6 C10.67 6.99 10.34 7.98 10 9 C6.66666667 7.33333333 3.33333333 5.66666667 0 4 C0 2.68 0 1.36 0 0 Z " fill="#B1B0AF" transform="translate(402,266)"/>
<path d="M0 0 C0.33 0 0.66 0 1 0 C1.05382106 2.62527189 1.09358313 5.24944713 1.125 7.875 C1.14175781 8.62136719 1.15851563 9.36773437 1.17578125 10.13671875 C1.1933959 12.09194461 1.10320189 14.04742021 1 16 C0.34 16.66 -0.32 17.32 -1 18 C-1.33 13.05 -1.66 8.1 -2 3 C-1.34 3 -0.68 3 0 3 C0 2.01 0 1.02 0 0 Z " fill="#D8D6D6" transform="translate(467,299)"/>
<path d="M0 0 C2.91517292 1.07401108 4.77810176 1.77810176 7 4 C6.9765625 6.1640625 6.9765625 6.1640625 6.625 8.625 C6.51414062 9.44226563 6.40328125 10.25953125 6.2890625 11.1015625 C6.19367187 11.72804688 6.09828125 12.35453125 6 13 C5.67 13 5.34 13 5 13 C4.80664062 12.39671875 4.61328125 11.7934375 4.4140625 11.171875 C4.15367187 10.37265625 3.89328125 9.5734375 3.625 8.75 C3.36976563 7.96109375 3.11453125 7.1721875 2.8515625 6.359375 C2.04826333 4.13372042 1.10288338 2.09068328 0 0 Z " fill="#E5E3E1" transform="translate(529,587)"/>
<path d="M0 0 C0.33 0 0.66 0 1 0 C1.03738281 0.67804688 1.07476562 1.35609375 1.11328125 2.0546875 C1.58485329 8.73066814 2.81921135 14.67708447 5 21 C2.20836288 18.59231297 1.10282443 16.23853384 -0.1875 12.8125 C-0.53167969 11.91144531 -0.87585938 11.01039063 -1.23046875 10.08203125 C-1.48441406 9.39496094 -1.73835938 8.70789063 -2 8 C-1.34 8 -0.68 8 0 8 C0 5.36 0 2.72 0 0 Z " fill="#CECACB" transform="translate(410,304)"/>
<path d="M0 0 C7.00004889 0.28688725 11.91026866 1.50404312 18 5 C17.67 5.99 17.34 6.98 17 8 C16.35933594 7.66226562 15.71867187 7.32453125 15.05859375 6.9765625 C10.08816104 4.41356739 5.44208502 2.30136816 0 1 C0 0.67 0 0.34 0 0 Z " fill="#4F504F" transform="translate(391,270)"/>
<path d="M0 0 C0.33 0 0.66 0 1 0 C1.12375 1.093125 1.2475 2.18625 1.375 3.3125 C1.75464801 7.07381802 1.75464801 7.07381802 4 10 C2.68 10.33 1.36 10.66 0 11 C-2 8 -2 8 -1.6875 4.375 C-1 1 -1 1 0 0 Z " fill="#434747" transform="translate(293,516)"/>
<path d="M0 0 C0.94875 0.350625 1.8975 0.70125 2.875 1.0625 C1.66796875 2.58203125 1.66796875 2.58203125 -0.125 4.0625 C-2.38671875 4.13671875 -2.38671875 4.13671875 -4.8125 3.75 C-5.62074219 3.63011719 -6.42898438 3.51023437 -7.26171875 3.38671875 C-7.87660156 3.27972656 -8.49148438 3.17273438 -9.125 3.0625 C-3.6875 -1.10625 -3.6875 -1.10625 0 0 Z " fill="#E7E5E3" transform="translate(467.125,346.9375)"/>
<path d="M0 0 C2 2 2 2 2.1953125 4.6015625 C2.17210937 5.59929687 2.14890625 6.59703125 2.125 7.625 C2.10695313 8.62789063 2.08890625 9.63078125 2.0703125 10.6640625 C2.03550781 11.82035156 2.03550781 11.82035156 2 13 C1.01 13.495 1.01 13.495 0 14 C-1.13016601 8.97703996 -0.77916092 5.02125926 0 0 Z " fill="#11100F" transform="translate(464,303)"/>
<path d="M0 0 C0.66 0.33 1.32 0.66 2 1 C-6.261959 6.37129841 -6.261959 6.37129841 -11 8 C-9.54875366 4.17398693 -7.64225296 2.77670876 -4 1 C-3.01 1 -2.02 1 -1 1 C-0.67 0.67 -0.34 0.34 0 0 Z " fill="#747472" transform="translate(470,341)"/>
<path d="M0 0 C4.95 0.99 4.95 0.99 10 2 C9.34 3.32 8.68 4.64 8 6 C5.125 5.25 5.125 5.25 2 4 C1.34 2.68 0.68 1.36 0 0 Z " fill="#212323" transform="translate(285,535)"/>
<path d="M0 0 C0.99 0.33 1.98 0.66 3 1 C2.360625 1.845625 1.72125 2.69125 1.0625 3.5625 C-1.1966273 6.90728565 -1.67791759 9.97396992 -2 14 C-2.33 14 -2.66 14 -3 14 C-3.32374517 8.49633208 -3.53286034 4.56327794 0 0 Z " fill="#393A39" transform="translate(320,447)"/>
<path d="M0 0 C3.45201639 1.47721422 5.64961936 3.43794001 8.25 6.125 C8.95640625 6.84945313 9.6628125 7.57390625 10.390625 8.3203125 C11.18726563 9.15175781 11.18726563 9.15175781 12 10 C11.67 10.66 11.34 11.32 11 12 C10.54109375 11.52949219 10.0821875 11.05898438 9.609375 10.57421875 C5.77414308 6.66905586 5.77414308 6.66905586 1.5625 3.1875 C1.046875 2.795625 0.53125 2.40375 0 2 C0 1.34 0 0.68 0 0 Z " fill="#E9E7E7" transform="translate(438,279)"/>
<path d="M0 0 C4.95 1.98 4.95 1.98 10 4 C6.77208445 6.1519437 5.71599191 6.20086443 2 6 C1.34 4.02 0.68 2.04 0 0 Z " fill="#BFBCBB" transform="translate(415,338)"/>
<path d="M0 0 C-1.44253657 3.36591866 -3.33264727 5.51047079 -6 8 C-6.33 6.68 -6.66 5.36 -7 4 C-2.25 0 -2.25 0 0 0 Z " fill="#1E1D1C" transform="translate(468,330)"/>
<path d="M0 0 C4.59306496 1.4859916 7.43569245 3.85014682 11 7 C10.67 7.99 10.34 8.98 10 10 C6.66666667 6.66666667 3.33333333 3.33333333 0 0 Z " fill="#5F5E5E" transform="translate(434,274)"/>
<path d="M0 0 C1.5 1.375 1.5 1.375 3 3 C3 3.66 3 4.32 3 5 C0.03 4.67 -2.94 4.34 -6 4 C-4.68 3.34 -3.36 2.68 -2 2 C-1.34 2.33 -0.68 2.66 0 3 C0 2.01 0 1.02 0 0 Z " fill="#DEDCD7" transform="translate(529,572)"/>
<path d="M0 0 C2.89932357 2.39509338 3.50168276 4.31245243 4 8 C3.01 8.33 2.02 8.66 1 9 C0 2.25 0 2.25 0 0 Z " fill="#918F8E" transform="translate(444,274)"/>
<path d="M0 0 C0.66 0.33 1.32 0.66 2 1 C-0.31 3.31 -2.62 5.62 -5 8 C-5.66 7.67 -6.32 7.34 -7 7 C-2.25 1.125 -2.25 1.125 0 0 Z " fill="#E3E0DF" transform="translate(469,331)"/>
<path d="M0 0 C3.38483604 1.12827868 5.35153397 2.63785462 8 5 C8 5.66 8 6.32 8 7 C5.6875 6.875 5.6875 6.875 3 6 C1.1875 2.9375 1.1875 2.9375 0 0 Z " fill="#373432" transform="translate(418,274)"/>
<path d="M0 0 C2.31 0.33 4.62 0.66 7 1 C6.67 2.32 6.34 3.64 6 5 C3.98079663 3.69593116 1.98075027 2.36176581 0 1 C0 0.67 0 0.34 0 0 Z " fill="#100F0F" transform="translate(420,273)"/>
<path d="M0 0 C0.66 0.33 1.32 0.66 2 1 C1.67 4.63 1.34 8.26 1 12 C0.67 12 0.34 12 0 12 C-0.19573608 10.56359829 -0.38127816 9.12580496 -0.5625 7.6875 C-0.66691406 6.88699219 -0.77132813 6.08648437 -0.87890625 5.26171875 C-1 3 -1 3 0 0 Z " fill="#787270" transform="translate(413,300)"/>
<path d="M0 0 C0.66 0 1.32 0 2 0 C2.66 2.31 3.32 4.62 4 7 C2.0625 6.25 2.0625 6.25 0 5 C-0.8125 2.9375 -0.8125 2.9375 -1 1 C-0.67 0.67 -0.34 0.34 0 0 Z " fill="#272726" transform="translate(457,295)"/>
<path d="M0 0 C4.875 2.625 4.875 2.625 6 6 C5.01 6.33 4.02 6.66 3 7 C0 3.375 0 3.375 0 0 Z " fill="#575554" transform="translate(451,286)"/>
<path d="M0 0 C1.9375 0.6875 1.9375 0.6875 4 2 C4.75 4.625 4.75 4.625 5 7 C4.01 7.33 3.02 7.66 2 8 C1.34 5.36 0.68 2.72 0 0 Z " fill="#827D79" transform="translate(415,278)"/>
<path d="M0 0 C-0.33 0.99 -0.66 1.98 -1 3 C-3.06640625 3.73046875 -3.06640625 3.73046875 -5.5625 4.1875 C-6.38878906 4.34605469 -7.21507812 4.50460937 -8.06640625 4.66796875 C-9.02353516 4.83232422 -9.02353516 4.83232422 -10 5 C-6.82795656 1.48809477 -4.74687042 0 0 0 Z " fill="#494543" transform="translate(467,337)"/>
<path d="M0 0 C0.66 0.33 1.32 0.66 2 1 C1.45773019 4.79588866 -0.20127563 6.47211993 -3 9 C-2.01 6.03 -1.02 3.06 0 0 Z " fill="#C8C5C4" transform="translate(467,323)"/>
</svg>
